/* XPM */
static char *cGxheWVy[] = {
/* columns rows colors chars-per-pixel */
"32 32 9 1 ",
"  c #83A448",
". c #8BAC50",
"X c #3A0911",
"o c #811426",
"O c #A11B31",
"+ c black",
"@ c #91AF55",
"# c #83883C",
"$ c white",
/* pixels */
"                                ",
"                          .     ",
"                   .  .   .     ",
"                   .. .  ..     ",
"           XXXXXXX  .  . .      ",
"          XoOOOOOOX .. . .      ",
"         XoOOOXXXXOX . .        ",
"        XoOOOX++++XOX.    @     ",
"     @@ XoOOX++++++XOX    @@    ",
"      @XooOOX++++++XOX    @@    ",
"     ##XoooOX+$+++$XOX   ##@    ",
"       XoXoOX+$+++$XOX@@@       ",
"       XoXoOX++++++XoX@@#       ",
"        XXooOX+++++XoX##        ",
"          XoooX+++XoX           ",
"           XXooXXXoX            ",
"          XoooOOOOOoX           ",
"      .  XoOOOOOOOOOoX          ",
"       ..XoOOOOOOOOOoX          ",
"     .  .XOOOOOOOOOOOX          ",
"      . XoOOOOOOOOOOOX          ",
"      ..XoOOOOOOoOOOOoX         ",
"       .XoOOOOOOoOOOOoX         ",
"        XoOOOOOoXoOOooX         ",
"   .   XoooOoOooXooOooX@@       ",
"   .   XooooOooX+XooooX@        ",
" . .   XoXooooX++XooXoX##       ",
" . .. ..XXoXooX+++XooX          ",
" .. . .. XX XXX  +XXX           ",
"  . . .     ++    +             ",
"  .   .      +    +             ",
"             +    +             "
};
