/* XPM */
static char *ZG9vcmNsb3Nl[] = {
/* columns rows colors chars-per-pixel */
"32 32 17 1 ",
"  c #83A448",
". c #8BAC50",
"X c #8895AF",
"o c #434F65",
"O c #A6B0C4",
"+ c #91AF55",
"@ c #6F7F9F",
"# c #59302C",
"$ c #412320",
"% c #6D3B36",
"& c #5C322D",
"* c gray55",
"= c gray68",
"- c #060608",
"; c gray36",
": c white",
"> c #9A544C",
/* pixels */
"                                ",
"                          .     ",
"                   .  .   .     ",
"                   .. .  ..     ",
"             XXXXXX .  . .      ",
"             XXXXXX .. . .      ",
"       XXXXXoXXXXXXoXXXXX       ",
"       XXXXXoOOOOOOoXXXXX +     ",
"oXXXXXoXXXXXo@@@@@@oXXXXXoXXXXXo",
"oXXXXXoOOOOOo@@@@@@oOOOOOoXXXXXo",
"oXXXXXo@@@@@o@@@@@@o@@@@@oXXXXXo",
"oOOOOOo@@@@@o@@@@@@o@@@@@oOOOOOo",
"o@@@@@o@@@@@#$####$#@@@@@o@@@@@o",
"o@@@@@###$###$####$###$###@@@@@o",
"o@@@@@###$%%%&%%%%&%%%$###@@@@@o",
"oooooo%%%&%%%&%%%%&%%%&%%%oooooo",
"oOOOOO**=&%%%&-----%%%&%%%OOOOOo",
"o@@@@@*==&%%%-;==::-%%&%%%@@@@@o",
"o@@@@@%%%&%%-;=---;:-%&%%%@@@@@o",
"o@@@@@%%%&%%-;=---;:-%&%%%@@@@@o",
"o@@@@@%%%&%-;=======:-&%=%@@@@@o",
"oooooo%%%&%-;=======:-&%=%oooooo",
"oOOOOO%%%&%-;===--==:-&%=%OOOOOo",
"o@@@@@%%%&%-;===--===-&%=%@@@@@o",
"o@@@@@%%%&%-;===--===-&%=%@@@@@o",
"o@@@@@%%%&%-;========-&%%%@@@@@o",
"o@@@@@%%%&%-;========-&%%%@@@@@o",
"oooooo%%%&%%---------%&%%%oooooo",
"oOOOOO**=&%%%&%%%%&%%%&%%%OOOOOo",
"o@@@@@*==&%%%&%%%%&%%%&%%%@@@@@o",
"o@@@@@%%%&%%%&%%%%&%%%&%%%@@@@@o",
"o@@@@@>>>&>>>&>>>>&>>>&>>>@@@@@o"
};
