/* XPM */
static char *ZGVtb25zdHJhdGlvbg__[] = {
/* columns rows colors chars-per-pixel */
"32 32 12 1 ",
"  c #D2CD87",
". c #83A448",
"X c #7D7669",
"o c #B0A67B",
"O c #E8DE9C",
"+ c #99876E",
"@ c #846851",
"# c #867673",
"$ c #6C6168",
"% c #AB9E80",
"& c #2E8049",
"* c #6F726A",
/* pixels */
"                            ... ",
"                             .  ",
"                             .  ",
"                             .  ",
"                             X  ",
"                             X  ",
"                             X  ",
"o                            X  ",
"oOO                O OOOO  ooXoo",
"o+++++++++++++++++++++++oooooXoo",
"++++++++++++++++++++++++++oooX++",
"++++++++++++++++++++++++++++oX++",
"+++++++++++++++++++++++++++++@++",
"++++++++++++++++++++++++++++#@++",
"+++++++++++++++++++++++++++##@++",
"++++++++++++++++++++++++++###@##",
"######@@@@@@@@############@@@@@@",
"+++++++++$++%%%%%%%%++++++++++++",
"+++++++++#++++++++++++++++++++++",
"+++++++++#++++++++++++++++++++++",
"+++++++++#++++++++++++++++++++++",
"+++++++++$++++++++++++++++++++++",
"+#######$$######$$$$############",
"++++%%%%%%%%%++++$++++++++++++++",
"+++++++++++++++++#++++++++++++++",
"+++++++++++++++++#++++++++++++++",
"+++++++++++++++++#++++++++++++++",
"+++++++++++++++++#&&++++++++++++",
"++++++&&+++++++&&*&&++++++++++++",
"++++++&&+++++++&&*++++++++++++++",
"&&++&&++&&&&&&&&&*&&++&&&&&&&+&&",
"&&++&&++&&&&&&&++*&&&&++&&&+++&&"
};
